<?xml version="1.0" encoding="UTF-8"?>
<svg xmlns="http://www.w3.org/2000/svg" xmlns:xlink="http://www.w3.org/1999/xlink" width="30px" height="30px" viewBox="0 0 30 30" version="1.1">
<defs>
<filter id="alpha" filterUnits="objectBoundingBox" x="0%" y="0%" width="100%" height="100%">
  <feColorMatrix type="matrix" in="SourceGraphic" values="0 0 0 0 1 0 0 0 0 1 0 0 0 0 1 0 0 0 1 0"/>
</filter>
<mask id="mask0">
  <g filter="url(#alpha)">
<rect x="0" y="0" width="30" height="30" style="fill:rgb(0%,0%,0%);fill-opacity:0.501961;stroke:none;"/>
  </g>
</mask>
<clipPath id="clip1">
  <rect x="0" y="0" width="30" height="30"/>
</clipPath>
<g id="surface5" clip-path="url(#clip1)">
<path style=" stroke:none;fill-rule:nonzero;fill:rgb(10.980392%,15.294118%,30.19608%);fill-opacity:1;" d="M 15 25.035156 L 15 22.5 L 10 22.5 L 10 25.035156 C 10 25.382812 10 25.554688 10.117188 25.625 C 10.238281 25.695312 10.398438 25.617188 10.722656 25.460938 L 12.277344 24.722656 C 12.386719 24.667969 12.441406 24.640625 12.5 24.640625 C 12.558594 24.640625 12.613281 24.667969 12.722656 24.722656 L 14.277344 25.460938 C 14.601562 25.617188 14.761719 25.695312 14.882812 25.625 C 15 25.554688 15 25.382812 15 25.035156 Z M 15 25.035156 "/>
</g>
<mask id="mask1">
  <g filter="url(#alpha)">
<rect x="0" y="0" width="30" height="30" style="fill:rgb(0%,0%,0%);fill-opacity:0.501961;stroke:none;"/>
  </g>
</mask>
<clipPath id="clip2">
  <rect x="0" y="0" width="30" height="30"/>
</clipPath>
<g id="surface8" clip-path="url(#clip2)">
<path style=" stroke:none;fill-rule:nonzero;fill:rgb(10.980392%,15.294118%,30.19608%);fill-opacity:1;" d="M 5.910156 3.417969 C 6.289062 3.03125 6.828125 2.78125 7.839844 2.644531 C 8.878906 2.503906 10.261719 2.5 12.242188 2.5 L 17.757812 2.5 C 19.738281 2.5 21.121094 2.503906 22.160156 2.644531 C 23.171875 2.78125 23.710938 3.03125 24.089844 3.417969 C 24.472656 3.800781 24.722656 4.34375 24.859375 5.363281 C 24.996094 6.414062 25 7.804688 25 9.800781 L 25 22.5 L 9.28125 22.5 C 7.929688 22.5 7.453125 22.507812 7.089844 22.585938 C 6.449219 22.722656 5.890625 23.019531 5.484375 23.417969 C 5.347656 23.554688 5.28125 23.621094 5.121094 24.050781 C 5.03125 24.296875 5 24.460938 5 24.625 L 5 9.800781 C 5 7.804688 5.003906 6.414062 5.140625 5.363281 C 5.277344 4.34375 5.527344 3.800781 5.910156 3.417969 Z M 5.910156 3.417969 "/>
</g>
</defs>
<g id="surface1">
<use xlink:href="#surface5" mask="url(#mask0)"/>
<path style=" stroke:none;fill-rule:nonzero;fill:rgb(10.980392%,15.294118%,30.19608%);fill-opacity:1;" d="M 10 22.5 L 9.28125 22.5 C 7.929688 22.5 7.453125 22.507812 7.089844 22.585938 C 6.449219 22.722656 5.890625 23.019531 5.484375 23.417969 C 5.347656 23.554688 5.28125 23.621094 5.121094 24.050781 C 4.964844 24.480469 4.988281 24.660156 5.039062 25.023438 C 5.046875 25.089844 5.054688 25.152344 5.066406 25.214844 C 5.203125 26.027344 5.453125 26.460938 5.835938 26.769531 C 6.21875 27.074219 6.757812 27.277344 7.773438 27.386719 C 8.820312 27.5 10.207031 27.5 12.191406 27.5 L 17.730469 27.5 C 19.71875 27.5 21.105469 27.5 22.152344 27.386719 C 23.167969 27.277344 23.707031 27.074219 24.089844 26.769531 C 24.472656 26.460938 24.722656 26.027344 24.859375 25.214844 C 24.972656 24.527344 24.996094 23.660156 25 22.5 L 15 22.5 L 15 25.035156 C 15 25.382812 15 25.554688 14.882812 25.625 C 14.761719 25.695312 14.601562 25.617188 14.277344 25.460938 L 12.722656 24.722656 C 12.613281 24.667969 12.558594 24.640625 12.5 24.640625 C 12.441406 24.640625 12.386719 24.667969 12.277344 24.722656 L 10.722656 25.460938 C 10.398438 25.617188 10.238281 25.695312 10.117188 25.625 C 10 25.554688 10 25.382812 10 25.035156 Z M 10 22.5 "/>
<use xlink:href="#surface8" mask="url(#mask1)"/>
<path style=" stroke:none;fill-rule:nonzero;fill:rgb(10.980392%,15.294118%,30.19608%);fill-opacity:1;" d="M 9.0625 8.75 C 9.0625 8.230469 9.480469 7.8125 10 7.8125 L 20 7.8125 C 20.519531 7.8125 20.9375 8.230469 20.9375 8.75 C 20.9375 9.269531 20.519531 9.6875 20 9.6875 L 10 9.6875 C 9.480469 9.6875 9.0625 9.269531 9.0625 8.75 Z M 9.0625 8.75 "/>
<path style=" stroke:none;fill-rule:nonzero;fill:rgb(10.980392%,15.294118%,30.19608%);fill-opacity:1;" d="M 10 12.1875 C 9.480469 12.1875 9.0625 12.605469 9.0625 13.125 C 9.0625 13.644531 9.480469 14.0625 10 14.0625 L 16.25 14.0625 C 16.769531 14.0625 17.1875 13.644531 17.1875 13.125 C 17.1875 12.605469 16.769531 12.1875 16.25 12.1875 Z M 10 12.1875 "/>
</g>
</svg>
